<?xml version="1.0" standalone="no"?>
<!DOCTYPE svg PUBLIC "-//W3C//DTD SVG 20010904//EN"
 "http://www.w3.org/TR/2001/REC-SVG-20010904/DTD/svg10.dtd">
<svg version="1.0" xmlns="http://www.w3.org/2000/svg"
 width="280.000000pt" height="280.000000pt" viewBox="0 0 280.000000 280.000000"
 preserveAspectRatio="xMidYMid meet">
<metadata>
Created by potrace 1.14, written by Peter Selinger 2001-2017
</metadata>
<g transform="translate(0.000000,280.000000) scale(0.100000,-0.100000)"
fill="#000000" stroke="none">
<path d="M0 1401 l0 -1401 1400 0 1400 0 0 1401 0 1401 -253 -6 c-138 -3 -288
-10 -332 -15 -126 -15 -1572 -14 -1577 1 -4 10 -82 14 -321 16 l-317 4 0
-1401z m605 986 c81 -179 261 -440 392 -568 239 -235 500 -376 797 -429 138
-25 236 -25 356 0 110 24 250 88 324 149 26 23 52 41 57 41 4 0 29 -26 56 -57
26 -32 77 -88 111 -125 l64 -67 5 -203 c6 -238 -11 -508 -33 -515 -15 -5 -237
125 -402 236 -84 56 -159 104 -166 107 -19 7 -36 -118 -36 -260 l0 -114 138
-46 c108 -38 326 -131 432 -185 35 -19 71 -186 56 -265 l-7 -37 -212 3 -212 3
-155 61 c-196 77 -306 133 -445 224 -197 130 -341 248 -541 443 -66 63 -101
107 -125 153 -17 35 -30 67 -27 69 7 8 233 23 513 35 308 13 325 16 325 46 0
21 -5 24 -39 24 -55 0 -200 26 -311 56 -254 69 -563 193 -944 379 -110 53
-216 103 -237 110 l-38 14 -7 -46 c-10 -67 2 -257 21 -333 18 -72 88 -221 112
-242 10 -8 48 -13 108 -13 78 0 98 -3 122 -20 29 -22 80 -116 212 -401 41 -87
112 -237 158 -333 54 -114 82 -183 80 -200 l-4 -26 -154 -2 c-85 -2 -242 0
-348 5 l-195 7 -43 80 c-61 114 -198 439 -242 575 -63 192 -66 219 -66 580 0
278 3 337 18 405 54 238 186 463 382 654 57 55 107 101 110 101 3 0 21 -33 40
-73z m482 48 c84 -16 182 -47 270 -84 l51 -23 4 -96 c2 -79 8 -106 28 -146 77
-151 277 -180 461 -67 l49 31 65 -39 c72 -44 205 -142 226 -167 11 -14 9 -20
-21 -45 -123 -104 -173 -124 -310 -124 -172 1 -357 61 -510 165 -134 91 -285
258 -364 401 -35 64 -76 169 -76 196 0 17 29 17 127 -2z m451 -2202 c191 -114
184 -108 180 -157 l-3 -41 -70 0 c-133 1 -253 7 -263 14 -19 12 -64 166 -69
239 l-6 74 52 -26 c28 -15 109 -61 179 -103z"/>
<path d="M813 2783 c9 -2 25 -2 35 0 9 3 1 5 -18 5 -19 0 -27 -2 -17 -5z"/>
<path d="M918 2783 c23 -2 61 -2 85 0 23 2 4 4 -43 4 -47 0 -66 -2 -42 -4z"/>
<path d="M1138 2783 c12 -2 32 -2 45 0 12 2 2 4 -23 4 -25 0 -35 -2 -22 -4z"/>
<path d="M1643 2783 c20 -2 54 -2 75 0 20 2 3 4 -38 4 -41 0 -58 -2 -37 -4z"/>
</g>
</svg>
